<?xml version="1.0" encoding="UTF-8" standalone="no"?>
<svg
   xmlns:dc="http://purl.org/dc/elements/1.1/"
   xmlns:cc="http://creativecommons.org/ns#"
   xmlns:rdf="http://www.w3.org/1999/02/22-rdf-syntax-ns#"
   xmlns:svg="http://www.w3.org/2000/svg"
   xmlns="http://www.w3.org/2000/svg"
   xmlns:sodipodi="http://sodipodi.sourceforge.net/DTD/sodipodi-0.dtd"
   xmlns:inkscape="http://www.inkscape.org/namespaces/inkscape"
   width="300"
   height="200"
   viewBox="0 0 79.374998 52.916668"
   version="1.1"
   id="svg115"
   sodipodi:docname="spiral.svg"
   inkscape:version="1.0 (6e3e5246a0, 2020-05-07)">
  <defs
     id="defs109" />
  <sodipodi:namedview
     id="base"
     pagecolor="#ffffff"
     bordercolor="#666666"
     borderopacity="1.0"
     inkscape:pageopacity="0.0"
     inkscape:pageshadow="2"
     inkscape:zoom="5.6568542"
     inkscape:cx="392.75115"
     inkscape:cy="163.00853"
     inkscape:document-units="px"
     inkscape:current-layer="layer1"
     inkscape:document-rotation="0"
     showgrid="true"
     units="px"
     showguides="false"
     inkscape:window-width="1920"
     inkscape:window-height="969"
     inkscape:window-x="0"
     inkscape:window-y="0"
     inkscape:window-maximized="1">
    <inkscape:grid
       type="xygrid"
       id="grid119"
       empspacing="2" />
  </sodipodi:namedview>
  <metadata
     id="metadata112">
    <rdf:RDF>
      <cc:Work
         rdf:about="">
        <dc:format>image/svg+xml</dc:format>
        <dc:type
           rdf:resource="http://purl.org/dc/dcmitype/StillImage" />
        <dc:title></dc:title>
      </cc:Work>
    </rdf:RDF>
  </metadata>
  <g
     inkscape:label="Layer 1"
     inkscape:groupmode="layer"
     id="layer1">
    <path
       id="rect117"
       style="fill-rule:evenodd;stroke-width:1.09999"
       d="M 0,0 H 289.98333 V 4.2333333 H 0 Z" />
    <path
       id="rect121"
       style="fill-rule:evenodd;stroke-width:0.867714"
       d="M 0.19883127,0 H 4.0793869 V 194.02779 H 0.19883127 Z" />
    <path
       id="rect123"
       style="fill-rule:evenodd;stroke-width:0.869195"
       d="M 4.0793869,190.14724 H 291.24051 v 3.88055 H 4.0793869 Z" />
    <path
       id="rect125"
       style="fill-rule:evenodd;stroke-width:0.867722"
       d="m 287.35994,0 h 3.88057 v 194.02777 h -3.88057 z" />
    <path
       id="spawnAreaIntruders"
       style="opacity:0.5;fill:#ff0000;fill-rule:evenodd;stroke-width:3.06002"
       d="M 4.2333287,4.2333333 H 44.45 V 190.5 H 4.2333287 Z" />
    <path
       id="spawnAreaGuards"
       style="opacity:0.5;fill:#00ff00;fill-rule:evenodd;stroke-width:1.16945"
       d="m 135.32507,67.733333 h 76.3416 V 95.25 h -76.3416 z" />
    <path
       id="targetArea"
       style="fill:#ffff00;fill-rule:evenodd;stroke-width:0.947832"
       d="m 114.3,69.85 h 14.81667 V 93.13333 H 114.3 Z" />
    <path
       d="m 50.8,158.75 h 182.03333 v 4.23333 H 50.8 Z"
       style="fill-rule:evenodd;stroke-width:0.854254"
       id="rect159-6" />
    <path
       d="m 44.45,14.816667 h 4.233333 V 162.98333 H 44.45 Z"
       style="fill-rule:evenodd;stroke-width:1.97996"
       id="rect141-9-61-8" />
    <path
       id="rect141-9-61-8-4"
       style="fill-rule:evenodd;stroke-width:1.95147"
       d="m 243.41667,31.75 h 4.23334 v 143.93333 h -4.23334 z" />
    <path
       id="rect159-6-7"
       style="fill-rule:evenodd;stroke-width:0.776188"
       d="M 91.016667,31.750002 H 241.3 v 4.233331 H 91.016667 Z" />
    <path
       d="m 76.199993,19.05 h 4.23334 v 112.18333 h -4.23334 z"
       style="fill-rule:evenodd;stroke-width:1.72284"
       id="rect141-9-61-8-4-8" />
    <path
       d="m 82.55,127 h 118.53333 v 4.23333 H 82.55 Z"
       style="fill-rule:evenodd;stroke-width:0.689336"
       id="rect159-6-7-4" />
    <path
       id="rect141-9-61-8-4-8-5"
       style="fill-rule:evenodd;stroke-width:1.45881"
       d="m 211.66667,63.5 h 4.23334 v 80.43333 h -4.23334 z" />
    <path
       id="rect159-6-7-4-0"
       style="fill-rule:evenodd;stroke-width:0.638203"
       d="m 107.95,63.500003 h 101.6 v 4.23333 h -101.6 z" />
    <path
       id="rect159-6-7-4-0-3-0"
       style="fill-rule:evenodd;stroke-width:0.184232"
       d="m 131.23333,67.733333 h 4.23333 V 76.2 h -4.23333 z" />
    <path
       d="m 107.94999,63.5 h 4.23334 v 35.983333 h -4.23334 z"
       style="fill-rule:evenodd;stroke-width:0.97573"
       id="rect141-9-61-8-4-8-5-6" />
    <path
       d="m 110.06667,95.250003 h 76.2 v 4.23333 h -76.2 z"
       style="fill-rule:evenodd;stroke-width:0.552701"
       id="rect159-6-7-4-0-32" />
    <path
       d="m 131.23333,86.783333 h 4.23333 V 95.25 h -4.23333 z"
       style="fill-rule:evenodd;stroke-width:0.184232"
       id="rect159-6-7-4-0-3-0-0" />
    <path
       id="rect159-6-7-4-0-3-0-0-6"
       style="fill-rule:evenodd;stroke-width:0.130272"
       d="m 266.7,27.516663 h 4.23333 v 4.233334 H 266.7 Z" />
    <path
       id="rect159-6-7-4-0-3-0-0-6-1-5"
       style="fill-rule:evenodd;stroke-width:0.130272"
       d="m 228.6,44.449997 h 4.23333 v 4.233335 H 228.6 Z" />
    <path
       d="m 266.7,63.499999 h 4.23333 v 4.233334 H 266.7 Z"
       style="fill-rule:evenodd;stroke-width:0.130272"
       id="rect159-6-7-4-0-3-0-0-6-4" />
    <path
       d="m 228.6,78.316664 h 4.23333 V 82.55 H 228.6 Z"
       style="fill-rule:evenodd;stroke-width:0.130272"
       id="rect159-6-7-4-0-3-0-0-6-1-5-5" />
    <path
       d="m 266.7,95.249994 h 4.23333 v 4.233334 H 266.7 Z"
       style="fill-rule:evenodd;stroke-width:0.130272"
       id="rect159-6-7-4-0-3-0-0-6-6" />
    <path
       d="m 228.6,112.18333 h 4.23333 v 4.23334 H 228.6 Z"
       style="fill-rule:evenodd;stroke-width:0.130272"
       id="rect159-6-7-4-0-3-0-0-6-1-5-7" />
    <path
       id="rect159-6-7-4-0-3-0-0-6-4-4"
       style="fill-rule:evenodd;stroke-width:0.130272"
       d="m 266.7,129.11666 h 4.23333 V 133.35 H 266.7 Z" />
    <path
       d="m 266.7,162.98333 h 4.23333 v 4.23333 H 266.7 Z"
       style="fill-rule:evenodd;stroke-width:0.130272"
       id="rect159-6-7-4-0-3-0-0-6-47" />
    <path
       d="m 196.85,78.316666 h 4.23333 V 82.55 H 196.85 Z"
       style="fill-rule:evenodd;stroke-width:0.130272"
       id="rect159-6-7-4-0-3-0-0-6-1-5-8" />
    <path
       d="M 21.166667,12.699996 H 25.4 v 4.233334 h -4.233333 z"
       style="fill-rule:evenodd;stroke-width:0.130272"
       id="rect159-6-7-4-0-3-0-0-6-2" />
    <path
       id="rect159-6-7-4-0-3-0-0-6-4-6"
       style="fill-rule:evenodd;stroke-width:0.130272"
       d="M 21.166667,46.566663 H 25.4 v 4.233336 h -4.233333 z" />
    <path
       id="rect159-6-7-4-0-3-0-0-6-6-9"
       style="fill-rule:evenodd;stroke-width:0.130272"
       d="M 21.166667,80.433327 H 25.4 v 4.233333 h -4.233333 z" />
    <path
       d="M 21.166667,114.29999 H 25.4 v 4.23334 h -4.233333 z"
       style="fill-rule:evenodd;stroke-width:0.130272"
       id="rect159-6-7-4-0-3-0-0-6-4-4-6" />
    <path
       id="rect159-6-7-4-0-3-0-0-6-47-4"
       style="fill-rule:evenodd;stroke-width:0.130272"
       d="M 21.166667,148.16666 H 25.4 v 4.23333 h -4.233333 z" />
    <path
       id="rect159-6-7-4-0-3-0-0-6-4-8"
       style="fill-rule:evenodd;stroke-width:0.130272"
       d="m 61.383336,46.566656 h 4.233331 v 4.233336 h -4.233331 z" />
    <path
       id="rect159-6-7-4-0-3-0-0-6-6-1"
       style="fill-rule:evenodd;stroke-width:0.130272"
       d="m 61.383336,80.43332 h 4.233331 v 4.233336 h -4.233331 z" />
    <path
       d="m 61.383336,114.3 h 4.233331 v 4.23334 h -4.233331 z"
       style="fill-rule:evenodd;stroke-width:0.130272"
       id="rect159-6-7-4-0-3-0-0-6-4-4-2" />
    <path
       id="rect159-6-7-4-0-3-0-0-6-47-2"
       style="fill-rule:evenodd;stroke-width:0.130272"
       d="m 61.383336,148.16667 h 4.233331 V 152.4 h -4.233331 z" />
    <path
       id="rect159-6-7-4-0-3-0-0-6-1-5-5-0"
       style="fill-rule:evenodd;stroke-width:0.130272"
       d="m 93.133333,80.433333 h 4.233327 v 4.233336 h -4.233327 z" />
    <path
       id="rect159-6-7-4-0-3-0-0-6-1-5-7-1"
       style="fill-rule:evenodd;stroke-width:0.130272"
       d="m 93.133333,114.3 h 4.233327 v 4.23334 h -4.233327 z" />
    <path
       d="m 21.166667,175.68333 h 4.233331 v 4.23333 h -4.233331 z"
       style="fill-rule:evenodd;stroke-width:0.130272"
       id="rect159-6-7-4-0-3-0-0-6-47-2-9" />
    <path
       d="m 44.450001,4.2333341 h 4.233331 V 14.816667 h -4.233331 z"
       style="fill:#ff00ff;stroke-width:0.295813"
       id="door1-1" />
    <path
       d="m 80.433333,34.925 h 10.583334 v 2.116667 H 80.433333 Z"
       style="fill:#cccccc;stroke-width:0.41834"
       id="shaded-6-5" />
    <path
       d="m 201.08333,125.94167 h 10.5784 v 2.11666 h -10.5784 z"
       style="fill:#cccccc;stroke-width:0.418244"
       id="shaded-6-6" />
    <path
       d="m 232.83334,157.69167 h 10.58333 v 2.11666 h -10.58333 z"
       style="fill:#cccccc;stroke-width:0.418342"
       id="shaded-6-9" />
    <path
       id="rect159-6-7-4-0-3-0-0-6-4-8-7-7-7-8"
       style="fill-rule:evenodd;stroke-width:0.0325681"
       d="m 231.77499,156.63333 h 1.05834 v 1.05834 h -1.05834 z" />
    <path
       d="m 91.016667,37.041667 h 1.058337 v 1.058336 h -1.058337 z"
       style="fill-rule:evenodd;stroke-width:0.032568"
       id="rect159-6-7-4-0-3-0-0-6-4-8-7-7-7-8-1" />
    <path
       d="m 200.025,124.88333 h 1.05833 v 1.05833 H 200.025 Z"
       style="fill-rule:evenodd;stroke-width:0.0325678"
       id="rect159-6-7-4-0-3-0-0-6-4-8-7-7-7-8-9" />
    <path
       d="m 76.2,14.81666 h 25.4 V 19.05 H 76.2 Z"
       style="fill-rule:evenodd;stroke-width:0.3191"
       id="rect159-6-7-4-0-3-0-0-6-1-5-7-3-9" />
    <path
       d="m 190.5,143.93333 h 25.4 v 4.23334 h -25.4 z"
       style="fill-rule:evenodd;stroke-width:0.319101"
       id="rect159-6-7-4-0-3-0-0-6-1-5-7-3-0" />
    <path
       id="rect159-6-7-4-0-3-0-0-6-1-5-7-3-0-8"
       style="fill-rule:evenodd;stroke-width:0.319101"
       d="m 222.25,175.68333 h 25.4 v 4.23334 h -25.4 z" />
  </g>
</svg>
