<?xml version="1.0" encoding="UTF-8" standalone="no"?>
<svg
   xmlns:dc="http://purl.org/dc/elements/1.1/"
   xmlns:cc="http://creativecommons.org/ns#"
   xmlns:rdf="http://www.w3.org/1999/02/22-rdf-syntax-ns#"
   xmlns:svg="http://www.w3.org/2000/svg"
   xmlns="http://www.w3.org/2000/svg"
   xmlns:sodipodi="http://sodipodi.sourceforge.net/DTD/sodipodi-0.dtd"
   xmlns:inkscape="http://www.inkscape.org/namespaces/inkscape"
   inkscape:version="1.0 (6e3e5246a0, 2020-05-07)"
   sodipodi:docname="temple.svg"
   id="svg115"
   version="1.1"
   viewBox="0 0 79.374998 52.916668"
   height="200"
   width="300">
  <defs
     id="defs109" />
  <sodipodi:namedview
     inkscape:window-maximized="1"
     inkscape:window-y="0"
     inkscape:window-x="0"
     inkscape:window-height="969"
     inkscape:window-width="1920"
     showguides="false"
     units="px"
     showgrid="true"
     inkscape:document-rotation="0"
     inkscape:current-layer="layer1"
     inkscape:document-units="px"
     inkscape:cy="381.38242"
     inkscape:cx="452.12008"
     inkscape:zoom="1"
     inkscape:pageshadow="2"
     inkscape:pageopacity="0.0"
     borderopacity="1.0"
     bordercolor="#666666"
     pagecolor="#ffffff"
     id="base">
    <inkscape:grid
       empspacing="2"
       id="grid119"
       type="xygrid" />
  </sodipodi:namedview>
  <metadata
     id="metadata112">
    <rdf:RDF>
      <cc:Work
         rdf:about="">
        <dc:format>image/svg+xml</dc:format>
        <dc:type
           rdf:resource="http://purl.org/dc/dcmitype/StillImage" />
        <dc:title></dc:title>
      </cc:Work>
    </rdf:RDF>
  </metadata>
  <g
     id="layer1"
     inkscape:groupmode="layer"
     inkscape:label="Layer 1">
    <path
       d="M -0.07456172,0.27745327 H 291.82383 V 3.5486945 H -0.07456172 Z"
       style="fill-rule:evenodd;stroke-width:0.970134"
       id="rect117" />
    <path
       d="M 0.19883127,0 H 4.0793869 V 194.02779 H 0.19883127 Z"
       style="fill-rule:evenodd;stroke-width:0.867714"
       id="rect121" />
    <path
       d="M 4.0793869,190.14724 H 291.24051 v 3.88055 H 4.0793869 Z"
       style="fill-rule:evenodd;stroke-width:0.869195"
       id="rect123" />
    <path
       d="m 287.35994,0 h 3.88057 v 194.02777 h -3.88057 z"
       style="fill-rule:evenodd;stroke-width:0.867722"
       id="rect125" />
    <path
       d="m 15.721054,65.969438 h 3.880555 v 58.208332 h -3.880555 z"
       style="fill-rule:evenodd;stroke-width:0.970134"
       id="rect139" />
    <path
       d="m 19.601609,65.969438 h 38.805556 v 3.880557 H 19.601609 Z"
       style="fill-rule:evenodd;stroke-width:0.970134"
       id="rect141" />
    <path
       d="m 54.526614,69.849999 h 3.880551 v 54.327781 h -3.880551 z"
       style="fill-rule:evenodd;stroke-width:0.970134"
       id="rect143" />
    <path
       d="m 15.721054,124.17777 h 42.686111 v 3.88055 H 15.721054 Z"
       style="fill-rule:evenodd;stroke-width:0.970134"
       id="rect145" />
    <path
       d="m 15.721054,54.327777 h 54.32778 v 3.880554 h -54.32778 z"
       style="fill-rule:evenodd;stroke-width:0.970134"
       id="rect147" />
    <path
       d="m 66.168279,58.208331 h 3.880555 v 77.611109 h -3.880555 z"
       style="fill-rule:evenodd;stroke-width:0.970134"
       id="rect149" />
    <path
       d="m 15.721054,135.81943 h 54.32778 V 139.7 h -54.32778 z"
       style="fill-rule:evenodd;stroke-width:0.970134"
       id="rect151" />
    <path
       d="m 15.721054,11.641667 h 3.880555 v 42.686114 h -3.880555 z"
       style="fill-rule:evenodd;stroke-width:1.13759"
       id="rect153" />
    <path
       d="m 15.721054,139.7 h 3.880555 v 42.68612 h -3.880555 z"
       style="fill-rule:evenodd;stroke-width:0.830775"
       id="rect155" />
    <path
       d="M 19.601609,11.641667 H 256.31552 v 3.880555 H 19.601609 Z"
       style="fill-rule:evenodd;stroke-width:0.932671"
       id="rect159" />
    <path
       d="M 19.601609,178.50556 H 256.31552 v 3.88056 H 19.601609 Z"
       style="fill-rule:evenodd;stroke-width:0.932671"
       id="rect161" />
    <path
       d="m 271.83774,7.7611165 h 3.88057 V 77.611113 h -3.88057 z"
       style="fill-rule:evenodd;stroke-width:0.920355"
       id="rect163" />
    <path
       d="m 271.83774,116.41667 h 3.88057 v 69.85 h -3.88057 z"
       style="fill-rule:evenodd;stroke-width:0.920355"
       id="rect163-3" />
    <path
       d="m 81.690501,65.969447 h 3.880554 v 62.088883 h -3.880554 z"
       style="fill-rule:evenodd;stroke-width:0.970134"
       id="rect186" />
    <path
       d="m 93.332178,15.522227 h 3.880545 v 62.088886 h -3.880545 z"
       style="fill-rule:evenodd;stroke-width:0.970134"
       id="rect186-6" />
    <path
       d="m 93.332178,116.41667 h 3.880545 v 62.08888 h -3.880545 z"
       style="fill-rule:evenodd;stroke-width:0.970134"
       id="rect186-6-7" />
    <path
       d="m 116.61549,15.522227 h 3.88055 v 62.088886 h -3.88055 z"
       style="fill-rule:evenodd;stroke-width:0.970134"
       id="rect186-6-3" />
    <path
       d="m 116.6155,116.41667 h 3.88055 v 62.08888 h -3.88055 z"
       style="fill-rule:evenodd;stroke-width:0.970134"
       id="rect186-6-7-5" />
    <path
       d="m 139.89883,15.522227 h 3.88056 v 62.088886 h -3.88056 z"
       style="fill-rule:evenodd;stroke-width:0.970134"
       id="rect186-6-9" />
    <path
       d="m 139.89885,116.41668 h 3.88054 v 62.08888 h -3.88054 z"
       style="fill-rule:evenodd;stroke-width:0.970134"
       id="rect186-6-7-1" />
    <path
       d="m 151.54049,65.969447 h 3.88056 v 62.088883 h -3.88056 z"
       style="fill-rule:evenodd;stroke-width:0.970134"
       id="rect186-2" />
    <path
       d="m 163.18217,27.16389 h 3.88056 v 62.088884 h -3.88056 z"
       style="fill-rule:evenodd;stroke-width:0.970134"
       id="rect186-6-70" />
    <path
       d="m 163.18217,104.775 h 3.88056 v 62.08888 h -3.88056 z"
       style="fill-rule:evenodd;stroke-width:0.970134"
       id="rect186-6-7-9" />
    <path
       d="m 213.62939,27.16389 h 4.46184 v 58.208338 h -4.46184 z"
       style="fill-rule:evenodd;stroke-width:1.04026"
       id="rect295" />
    <path
       d="m 174.82385,27.16389 h 38.80554 v 3.880555 h -38.80554 z"
       style="fill-rule:evenodd;stroke-width:0.970134"
       id="rect297" />
    <path
       d="m 174.82385,31.044443 h 3.88054 V 166.86388 h -3.88054 z"
       style="fill-rule:evenodd;stroke-width:0.970134"
       id="rect299" />
    <path
       d="m 178.70439,162.98335 h 34.925 v 3.88053 h -34.925 z"
       style="fill-rule:evenodd;stroke-width:0.970134"
       id="rect301" />
    <path
       d="m 213.62939,108.65556 h 4.46184 v 58.20832 h -4.46184 z"
       style="fill-rule:evenodd;stroke-width:1.04026"
       id="rect303" />
    <path
       d="m 205.86828,93.133335 h 3.88057 v 7.761115 h -3.88057 z"
       style="fill-rule:evenodd;stroke-width:0.970134"
       id="rect305" />
    <path
       d="m 58.68056,77.611113 h 89.56067 V 116.41667 H 58.68056 Z"
       style="opacity:0.5;fill:#ff0000;fill-rule:evenodd;stroke-width:2.0843"
       id="spawnAreaIntruders" />
    <path
       d="m 194.22662,15.522222 h 19.67617 V 178.50556 h -19.67617 z"
       style="opacity:0.5;fill:#00ff00;fill-rule:evenodd;stroke-width:1.44493"
       id="spawnAreaGuards" />
    <path
       d="m 42.884944,73.730559 h 7.761109 v 46.566661 h -7.761109 z"
       style="fill:#ffff00;fill-rule:evenodd;stroke-width:0.970134"
       id="targetArea" />
    <path
       d="m 186.46551,85.372228 h 7.76111 v 3.880554 h -7.76111 z"
       style="fill:#000000;fill-rule:evenodd;stroke-width:0.970134"
       id="rect318" />
    <path
       d="m 190.34607,89.252782 h 3.88055 V 104.775 h -3.88055 z"
       style="fill:#000000;fill-rule:evenodd;stroke-width:0.970134"
       id="rect320" />
    <path
       d="m 186.46551,104.77499 h 7.76111 v 3.88056 h -7.76111 z"
       style="fill:#000000;fill-rule:evenodd;stroke-width:0.970134"
       id="rect322" />
    <path
       d="m 178.70439,116.41667 h 7.76112 v 3.88055 h -7.76112 z"
       style="fill:#000000;fill-rule:evenodd;stroke-width:0.970134"
       id="rect324" />
    <path
       d="m 178.70439,73.730559 h 7.76112 v 3.880554 h -7.76112 z"
       style="fill:#000000;fill-rule:evenodd;stroke-width:0.970134"
       id="rect326" />
    <path
       d="m 225.27106,162.98335 h 46.56668 v 3.88053 h -46.56668 z"
       style="fill:#000000;fill-rule:evenodd;stroke-width:1.50293"
       id="rect328" />
    <path
       d="m 225.27106,27.16389 h 46.56667 v 3.880555 h -46.56667 z"
       style="fill:#000000;fill-rule:evenodd;stroke-width:1.50293"
       id="rect330" />
    <path
       d="m 225.27104,116.41667 h 38.80556 v 3.88055 h -38.80556 z"
       style="fill:#000000;fill-rule:evenodd;stroke-width:0.970134"
       id="rect332" />
    <path
       d="m 225.27104,73.730559 h 38.80556 v 3.880554 h -38.80556 z"
       style="fill:#000000;fill-rule:evenodd;stroke-width:0.970134"
       id="rect334" />
    <path
       d="m 116.6155,85.372228 h 3.88055 v 3.880546 h -3.88055 z"
       style="fill:#000000;fill-rule:evenodd;stroke-width:0.970134"
       id="rect336" />
    <path
       d="m 116.6155,104.77499 h 3.88055 v 3.88056 h -3.88055 z"
       style="fill:#000000;fill-rule:evenodd;stroke-width:0.970134"
       id="rect338" />
    <path
       d="m 264.07661,81.491675 h 15.52225 v 7.761107 h -15.52225 z"
       style="fill:#000000;fill-rule:evenodd;stroke-width:0.867714"
       id="rect340" />
    <path
       d="m 264.07661,104.77499 h 15.52225 v 7.76112 h -15.52225 z"
       style="fill:#000000;fill-rule:evenodd;stroke-width:0.867714"
       id="rect342" />
    <path
       d="m 213.62939,93.133335 h 7.7611 v 7.761115 h -7.7611 z"
       style="fill:#000000;fill-rule:evenodd;stroke-width:0.970134"
       id="rect344" />
    <path
       d="m 205.86828,85.372228 h 3.88057 v 3.880546 h -3.88057 z"
       style="fill:#000000;fill-rule:evenodd;stroke-width:0.970134"
       id="rect346" />
    <path
       d="m 205.86828,104.77499 h 3.88057 v 3.88056 h -3.88057 z"
       style="fill:#000000;fill-rule:evenodd;stroke-width:0.970134"
       id="rect348" />
    <path
       d="m 218.09123,162.98335 h 7.45322 v 3.88053 h -7.45322 z"
       style="fill:#ff00ff;fill-rule:evenodd;stroke-width:0.950696"
       id="door2" />
    <path
       d="m 217.78333,27.16389 h 7.76112 v 3.880555 h -7.76112 z"
       style="fill:#ff00ff;fill-rule:evenodd;stroke-width:0.970134"
       id="door1" />
    <path
       d="m 213.90279,84.666667 h 4.18844 v 8.466668 h -4.18844 z"
       style="fill:#ff00ff;fill-rule:evenodd;stroke-width:1.48874"
       id="door3" />
    <path
       d="m 213.8579,100.89445 h 4.23333 v 9.17222 h -4.23333 z"
       style="fill:#ff00ff;fill-rule:evenodd;stroke-width:1.55782"
       id="door4" />
    <path
       d="m 179.99123,88.900002 h 10.58333 v 14.816668 h -10.58333 z"
       style="opacity:0.5;fill:#0000ff;fill-rule:evenodd;stroke-width:0.264583"
       id="teleportA" />
    <path
       d="M 21.241228,88.900002 H 31.824565 V 103.71667 H 21.241228 Z"
       style="opacity:0.5;fill:#0000ff;fill-rule:evenodd;stroke-width:0.264583"
       id="teleportB" />
  </g>
</svg>
