<?xml version="1.0" encoding="UTF-8" standalone="no"?>
<svg
   xmlns:dc="http://purl.org/dc/elements/1.1/"
   xmlns:cc="http://creativecommons.org/ns#"
   xmlns:rdf="http://www.w3.org/1999/02/22-rdf-syntax-ns#"
   xmlns:svg="http://www.w3.org/2000/svg"
   xmlns="http://www.w3.org/2000/svg"
   xmlns:sodipodi="http://sodipodi.sourceforge.net/DTD/sodipodi-0.dtd"
   xmlns:inkscape="http://www.inkscape.org/namespaces/inkscape"
   width="300"
   height="200"
   viewBox="0 0 79.374998 52.916668"
   version="1.1"
   id="svg115"
   sodipodi:docname="open.svg"
   inkscape:version="1.0 (6e3e5246a0, 2020-05-07)">
  <defs
     id="defs109" />
  <sodipodi:namedview
     id="base"
     pagecolor="#ffffff"
     bordercolor="#666666"
     borderopacity="1.0"
     inkscape:pageopacity="0.0"
     inkscape:pageshadow="2"
     inkscape:zoom="1"
     inkscape:cx="503.88556"
     inkscape:cy="345.21993"
     inkscape:document-units="px"
     inkscape:current-layer="layer1"
     inkscape:document-rotation="0"
     showgrid="true"
     units="px"
     showguides="false"
     inkscape:window-width="1920"
     inkscape:window-height="969"
     inkscape:window-x="0"
     inkscape:window-y="0"
     inkscape:window-maximized="1">
    <inkscape:grid
       type="xygrid"
       id="grid119"
       empspacing="2" />
  </sodipodi:namedview>
  <metadata
     id="metadata112">
    <rdf:RDF>
      <cc:Work
         rdf:about="">
        <dc:format>image/svg+xml</dc:format>
        <dc:type
           rdf:resource="http://purl.org/dc/dcmitype/StillImage" />
        <dc:title></dc:title>
      </cc:Work>
    </rdf:RDF>
  </metadata>
  <g
     inkscape:label="Layer 1"
     inkscape:groupmode="layer"
     id="layer1">
    <path
       id="rect117"
       style="fill-rule:evenodd;stroke-width:1.09999"
       d="M 0,0 H 289.98333 V 4.2333333 H 0 Z" />
    <path
       id="rect121"
       style="fill-rule:evenodd;stroke-width:0.867714"
       d="M 0.19883127,0 H 4.0793869 V 194.02779 H 0.19883127 Z" />
    <path
       id="rect123"
       style="fill-rule:evenodd;stroke-width:0.869195"
       d="M 4.0793869,190.14724 H 291.24051 v 3.88055 H 4.0793869 Z" />
    <path
       id="rect125"
       style="fill-rule:evenodd;stroke-width:0.867722"
       d="m 287.35994,0 h 3.88057 v 194.02777 h -3.88057 z" />
    <path
       id="rect139"
       style="fill-rule:evenodd;stroke-width:1.01327"
       d="M 14.816667,67.733333 H 19.05 v 58.208337 h -4.233333 z" />
    <path
       id="rect141"
       style="fill-rule:evenodd;stroke-width:1.06273"
       d="m 14.816667,65.616667 h 46.566666 v 3.880557 H 14.816667 Z" />
    <path
       id="rect145"
       style="fill-rule:evenodd;stroke-width:0.966117"
       d="M 14.816667,125.23612 H 57.15 v 3.88055 H 14.816667 Z" />
    <path
       id="rect159"
       style="fill-rule:evenodd;stroke-width:0.925759"
       d="M 57.15,21.166666 H 270.93333 V 25.4 H 57.15 Z" />
    <path
       id="spawnAreaIntruders"
       style="opacity:0.5;fill:#ff0000;fill-rule:evenodd;stroke-width:1.28316"
       d="M 61.383333,25.4 H 268.81667 v 6.35 H 61.383333 Z" />
    <path
       id="spawnAreaGuards"
       style="opacity:0.5;fill:#00ff00;fill-rule:evenodd;stroke-width:0.926044"
       d="M 61.383336,165.1 H 268.81667 v 6.35 H 61.383336 Z" />
    <path
       id="targetArea"
       style="fill:#ffff00;fill-rule:evenodd;stroke-width:0.716493"
       d="m 21.166667,84.666667 h 8.466667 V 107.95 h -8.466667 z" />
    <path
       id="teleportA"
       style="opacity:0.5;fill:#0000ff;fill-rule:evenodd;stroke-width:0.204945"
       d="M 260.34999,88.9 H 266.7 v 14.81667 h -6.35001 z" />
    <path
       id="teleportB"
       style="opacity:0.5;fill:#0000ff;fill-rule:evenodd;stroke-width:0.331673"
       d="M 46.566667,84.666667 H 57.150001 V 107.95 H 46.566667 Z" />
    <path
       d="m 57.15,65.616667 h 4.233333 V 129.11666 H 57.15 Z"
       style="fill-rule:evenodd;stroke-width:1.02472"
       id="rect186-3" />
    <path
       d="M 268.81667,21.166667 H 273.05 V 88.9 h -4.23333 z"
       style="fill-rule:evenodd;stroke-width:1.09303"
       id="rect139-3" />
    <path
       id="rect139-3-5"
       style="fill-rule:evenodd;stroke-width:1.12668"
       d="M 268.81667,103.71667 H 273.05 v 71.96666 h -4.23333 z" />
    <path
       d="M 57.149997,171.45 H 273.05 v 4.23333 H 57.149997 Z"
       style="fill-rule:evenodd;stroke-width:0.930332"
       id="rect159-6" />
    <path
       d="m 57.15,21.166667 h 4.233333 v 31.75 H 57.15 Z"
       style="fill-rule:evenodd;stroke-width:0.724589"
       id="rect186-2" />
    <path
       d="m 44.45,49.03611 h 16.933333 v 3.880557 H 44.45 Z"
       style="fill-rule:evenodd;stroke-width:0.64085"
       id="rect141-9" />
    <path
       id="rect186-2-1"
       style="fill-rule:evenodd;stroke-width:0.748351"
       d="m 57.15,141.81667 h 4.233333 v 33.86666 H 57.15 Z" />
    <path
       id="rect141-9-2"
       style="fill-rule:evenodd;stroke-width:0.64085"
       d="m 44.45,141.81667 h 16.933333 v 3.88055 H 44.45 Z" />
    <path
       d="m 44.45,52.916667 h 4.233333 v 12.7 H 44.45 Z"
       style="fill:#ff00ff;fill-rule:evenodd;stroke-width:0.324047"
       id="door3" />
    <path
       d="m 44.45,129.11667 h 4.233333 v 12.7 H 44.45 Z"
       style="fill:#ff00ff;fill-rule:evenodd;stroke-width:0.324047"
       id="door2" />
    <path
       id="rect141-9-6"
       style="fill-rule:evenodd;stroke-width:0.579672"
       d="m 260.35,84.666667 h 12.7 V 88.9 h -12.7 z" />
    <path
       d="m 260.35,103.71667 h 12.7 V 107.95 h -12.7 z"
       style="fill-rule:evenodd;stroke-width:0.579671"
       id="rect141-9-6-0" />
    <path
       id="rect186-3-6"
       style="fill-rule:evenodd;stroke-width:0.620499"
       d="M 256.11667,84.666667 H 260.35 V 107.95 h -4.23333 z" />
    <path
       id="door3-2"
       style="fill:#ff00ff;fill-rule:evenodd;stroke-width:0.35001"
       d="m 270.93333,88.9 h 4.23333 v 14.81667 h -4.23333 z" />
    <path
       id="rect141-9-61"
       style="fill-rule:evenodd;stroke-width:0.487866"
       d="m 27.516667,21.166667 h 6.35 v 5.997224 h -6.35 z" />
    <path
       d="m 27.516667,169.33333 h 6.35 v 6.35 h -6.35 z"
       style="fill-rule:evenodd;stroke-width:0.502009"
       id="rect141-9-61-8" />
    <path
       id="rect141-9-61-8-7"
       style="fill-rule:evenodd;stroke-width:0.50201"
       d="m 249.76667,131.23332 h 6.35 v 6.35001 h -6.35 z" />
    <path
       d="m 228.6,93.133326 h 6.35 v 6.350007 h -6.35 z"
       style="fill-rule:evenodd;stroke-width:0.50201"
       id="rect141-9-61-8-7-9" />
    <path
       d="m 215.90001,131.23333 h 6.35 v 6.35 h -6.35 z"
       style="fill-rule:evenodd;stroke-width:0.50201"
       id="rect141-9-61-8-7-2" />
    <path
       id="rect141-9-61-8-7-9-0"
       style="fill-rule:evenodd;stroke-width:0.50201"
       d="m 194.73334,93.133329 h 6.35 v 6.350009 h -6.35 z" />
    <path
       d="m 182.03335,131.23332 h 6.35 v 6.35 h -6.35 z"
       style="fill-rule:evenodd;stroke-width:0.50201"
       id="rect141-9-61-8-7-23" />
    <path
       id="rect141-9-61-8-7-9-7"
       style="fill-rule:evenodd;stroke-width:0.50201"
       d="m 160.86668,93.133326 h 6.35 v 6.350008 h -6.35 z" />
    <path
       id="rect141-9-61-8-7-2-5"
       style="fill-rule:evenodd;stroke-width:0.50201"
       d="m 148.16669,131.23333 h 6.35 v 6.34999 h -6.35 z" />
    <path
       d="m 127.00002,93.133329 h 6.35 v 6.350005 h -6.35 z"
       style="fill-rule:evenodd;stroke-width:0.50201"
       id="rect141-9-61-8-7-9-0-9" />
    <path
       d="m 112.18333,131.23333 h 6.35 v 6.35 h -6.35 z"
       style="fill-rule:evenodd;stroke-width:0.50201"
       id="rect141-9-61-8-7-9-7-9" />
    <path
       d="m 91.016673,93.133326 h 6.35 v 6.349998 h -6.35 z"
       style="fill-rule:evenodd;stroke-width:0.50201"
       id="rect141-9-61-8-7-2-5-7" />
    <path
       id="rect141-9-61-8-7-9-0-9-3"
       style="fill-rule:evenodd;stroke-width:0.50201"
       d="m 78.316667,131.23333 h 6.35 v 6.35 h -6.35 z" />
    <path
       d="m 249.76665,55.033333 h 6.35 v 6.35001 h -6.35 z"
       style="fill-rule:evenodd;stroke-width:0.50201"
       id="rect141-9-61-8-7-6" />
    <path
       id="rect141-9-61-8-7-2-1"
       style="fill-rule:evenodd;stroke-width:0.50201"
       d="m 215.89999,55.033343 h 6.35 v 6.35 h -6.35 z" />
    <path
       id="rect141-9-61-8-7-23-2"
       style="fill-rule:evenodd;stroke-width:0.50201"
       d="m 182.03333,55.033333 h 6.35 v 6.35 h -6.35 z" />
    <path
       d="m 148.16667,55.033343 h 6.35 v 6.34999 h -6.35 z"
       style="fill-rule:evenodd;stroke-width:0.50201"
       id="rect141-9-61-8-7-2-5-9" />
    <path
       id="rect141-9-61-8-7-9-7-9-3"
       style="fill-rule:evenodd;stroke-width:0.50201"
       d="m 112.18331,55.033343 h 6.35 v 6.35 h -6.35 z" />
    <path
       d="m 78.31665,55.033343 h 6.35 v 6.35 h -6.35 z"
       style="fill-rule:evenodd;stroke-width:0.50201"
       id="rect141-9-61-8-7-9-0-9-3-1" />
    <path
       id="rect186-3-9"
       style="fill-rule:evenodd;stroke-width:0.83668"
       d="m 35.983333,76.2 h 4.233333 v 42.33333 h -4.233333 z" />
  </g>
</svg>
